<svg width="147" height="39" viewBox="0 0 147 39" fill="none" xmlns="http://www.w3.org/2000/svg">
<path d="M10.144 31.82C8.33067 31.82 6.752 31.4467 5.408 30.7C4.08533 29.932 3.06133 28.8973 2.336 27.596C1.632 26.2947 1.28 24.8227 1.28 23.18C1.28 21.26 1.664 19.628 2.432 18.284C3.22133 16.9187 4.24533 15.8733 5.504 15.148C6.76267 14.4227 8.096 14.06 9.504 14.06C10.592 14.06 11.616 14.284 12.576 14.732C13.5573 15.18 14.4213 15.7987 15.168 16.588C15.9147 17.356 16.5013 18.252 16.928 19.276C17.376 20.3 17.6 21.388 17.6 22.54C17.5787 23.052 17.376 23.468 16.992 23.788C16.608 24.108 16.16 24.268 15.648 24.268H3.424L2.464 21.068H14.208L13.504 21.708V20.844C13.4613 20.2253 13.2373 19.6707 12.832 19.18C12.448 18.6893 11.9573 18.3053 11.36 18.028C10.784 17.7293 10.1653 17.58 9.504 17.58C8.864 17.58 8.26667 17.6653 7.712 17.836C7.15733 18.0067 6.67733 18.2947 6.272 18.7C5.86667 19.1053 5.54667 19.6493 5.312 20.332C5.07733 21.0147 4.96 21.8787 4.96 22.924C4.96 24.076 5.19467 25.0573 5.664 25.868C6.15467 26.6573 6.77333 27.2653 7.52 27.692C8.288 28.0973 9.09867 28.3 9.952 28.3C10.7413 28.3 11.3707 28.236 11.84 28.108C12.3093 27.98 12.6827 27.8307 12.96 27.66C13.2587 27.468 13.5253 27.308 13.76 27.18C14.144 26.988 14.5067 26.892 14.848 26.892C15.3173 26.892 15.7013 27.052 16 27.372C16.32 27.692 16.48 28.0653 16.48 28.492C16.48 29.068 16.1813 29.5907 15.584 30.06C15.0293 30.5293 14.2507 30.9453 13.248 31.308C12.2453 31.6493 11.2107 31.82 10.144 31.82ZM23.067 23.596C22.5123 23.596 22.043 23.4147 21.659 23.052C21.2963 22.6893 21.115 22.2307 21.115 21.676C21.115 21.1213 21.2963 20.6733 21.659 20.332C22.043 19.9693 22.5123 19.788 23.067 19.788H28.635C29.1897 19.788 29.6483 19.98 30.011 20.364C30.395 20.7267 30.587 21.1853 30.587 21.74C30.587 22.2733 30.395 22.7213 30.011 23.084C29.6483 23.4253 29.1897 23.596 28.635 23.596H23.067ZM42.8265 31.5C42.2292 31.5 41.7385 31.3187 41.3545 30.956C40.9705 30.572 40.7785 30.1027 40.7785 29.548V10.988H44.9385V29.548C44.9385 30.1027 44.7358 30.572 44.3305 30.956C43.9465 31.3187 43.4452 31.5 42.8265 31.5ZM35.7545 12.78C35.1998 12.78 34.7305 12.6093 34.3465 12.268C33.9838 11.9267 33.8025 11.4787 33.8025 10.924C33.8025 10.3693 33.9838 9.932 34.3465 9.612C34.7305 9.27067 35.1998 9.1 35.7545 9.1H49.9625C50.5172 9.1 50.9758 9.27067 51.3385 9.612C51.7225 9.95333 51.9145 10.4013 51.9145 10.956C51.9145 11.5107 51.7225 11.9587 51.3385 12.3C50.9758 12.62 50.5172 12.78 49.9625 12.78H35.7545ZM64.454 14.38C65.0087 14.38 65.4673 14.572 65.83 14.956C66.1927 15.3187 66.374 15.7773 66.374 16.332V24.46C66.374 26.7213 65.7447 28.5133 64.486 29.836C63.2273 31.1587 61.414 31.82 59.046 31.82C56.678 31.82 54.8647 31.1587 53.606 29.836C52.3687 28.5133 51.75 26.7213 51.75 24.46V16.332C51.75 15.7773 51.9313 15.3187 52.294 14.956C52.6567 14.572 53.1153 14.38 53.67 14.38C54.2247 14.38 54.6833 14.572 55.046 14.956C55.4087 15.3187 55.59 15.7773 55.59 16.332V24.46C55.59 25.7613 55.878 26.732 56.454 27.372C57.03 27.9907 57.894 28.3 59.046 28.3C60.2193 28.3 61.094 27.9907 61.67 27.372C62.246 26.732 62.534 25.7613 62.534 24.46V16.332C62.534 15.7773 62.7153 15.3187 63.078 14.956C63.4407 14.572 63.8993 14.38 64.454 14.38ZM71.3632 14.7H78.9472C79.4592 14.7 79.8859 14.8707 80.2272 15.212C80.5686 15.5533 80.7392 15.98 80.7392 16.492C80.7392 16.9827 80.5686 17.3987 80.2272 17.74C79.8859 18.06 79.4592 18.22 78.9472 18.22H71.3632C70.8512 18.22 70.4246 18.0493 70.0832 17.708C69.7419 17.3667 69.5712 16.94 69.5712 16.428C69.5712 15.9373 69.7419 15.532 70.0832 15.212C70.4246 14.8707 70.8512 14.7 71.3632 14.7ZM74.7872 10.7C75.3419 10.7 75.7899 10.892 76.1312 11.276C76.4939 11.6387 76.6752 12.0973 76.6752 12.652V26.892C76.6752 27.1907 76.7286 27.436 76.8352 27.628C76.9632 27.82 77.1232 27.9587 77.3152 28.044C77.5286 28.1293 77.7526 28.172 77.9872 28.172C78.2432 28.172 78.4779 28.1293 78.6912 28.044C78.9046 27.9373 79.1499 27.884 79.4272 27.884C79.7259 27.884 79.9926 28.0227 80.2272 28.3C80.4832 28.5773 80.6112 28.9613 80.6112 29.452C80.6112 30.0493 80.2806 30.54 79.6192 30.924C78.9792 31.308 78.2859 31.5 77.5392 31.5C77.0912 31.5 76.5899 31.468 76.0352 31.404C75.5019 31.3187 74.9899 31.1373 74.4992 30.86C74.0299 30.5613 73.6352 30.1133 73.3152 29.516C72.9952 28.9187 72.8352 28.0973 72.8352 27.052V12.652C72.8352 12.0973 73.0166 11.6387 73.3792 11.276C73.7632 10.892 74.2326 10.7 74.7872 10.7ZM101.357 22.956C101.357 24.7053 100.962 26.252 100.173 27.596C99.4047 28.9187 98.3594 29.9533 97.0367 30.7C95.7354 31.4467 94.2741 31.82 92.6527 31.82C91.0314 31.82 89.5594 31.4467 88.2367 30.7C86.9354 29.9533 85.8901 28.9187 85.1007 27.596C84.3327 26.252 83.9487 24.7053 83.9487 22.956C83.9487 21.2067 84.3327 19.6707 85.1007 18.348C85.8901 17.004 86.9354 15.9587 88.2367 15.212C89.5594 14.444 91.0314 14.06 92.6527 14.06C94.2741 14.06 95.7354 14.444 97.0367 15.212C98.3594 15.9587 99.4047 17.004 100.173 18.348C100.962 19.6707 101.357 21.2067 101.357 22.956ZM97.5167 22.956C97.5167 21.868 97.2927 20.9293 96.8447 20.14C96.4181 19.3293 95.8314 18.7 95.0847 18.252C94.3594 17.804 93.5487 17.58 92.6527 17.58C91.7567 17.58 90.9354 17.804 90.1887 18.252C89.4634 18.7 88.8767 19.3293 88.4287 20.14C88.0021 20.9293 87.7887 21.868 87.7887 22.956C87.7887 24.0227 88.0021 24.9613 88.4287 25.772C88.8767 26.5613 89.4634 27.18 90.1887 27.628C90.9354 28.076 91.7567 28.3 92.6527 28.3C93.5487 28.3 94.3594 28.076 95.0847 27.628C95.8314 27.18 96.4181 26.5613 96.8447 25.772C97.2927 24.9613 97.5167 24.0227 97.5167 22.956ZM107.277 31.5C106.723 31.5 106.264 31.3187 105.901 30.956C105.539 30.572 105.357 30.1027 105.357 29.548V16.332C105.357 15.7773 105.539 15.3187 105.901 14.956C106.264 14.572 106.723 14.38 107.277 14.38C107.832 14.38 108.291 14.572 108.653 14.956C109.016 15.3187 109.197 15.7773 109.197 16.332V19.34L108.973 17.196C109.208 16.684 109.507 16.236 109.869 15.852C110.253 15.4467 110.68 15.116 111.149 14.86C111.619 14.5827 112.12 14.38 112.653 14.252C113.187 14.124 113.72 14.06 114.253 14.06C114.893 14.06 115.427 14.2413 115.853 14.604C116.301 14.9667 116.525 15.3933 116.525 15.884C116.525 16.588 116.344 17.1 115.981 17.42C115.619 17.7187 115.224 17.868 114.797 17.868C114.392 17.868 114.019 17.7933 113.677 17.644C113.357 17.4947 112.984 17.42 112.557 17.42C112.173 17.42 111.779 17.516 111.373 17.708C110.989 17.8787 110.627 18.156 110.285 18.54C109.965 18.924 109.699 19.404 109.485 19.98C109.293 20.5347 109.197 21.196 109.197 21.964V29.548C109.197 30.1027 109.016 30.572 108.653 30.956C108.291 31.3187 107.832 31.5 107.277 31.5ZM123.489 29.548C123.489 30.1027 123.307 30.572 122.945 30.956C122.582 31.3187 122.123 31.5 121.569 31.5C121.014 31.5 120.555 31.3187 120.193 30.956C119.83 30.572 119.649 30.1027 119.649 29.548V16.332C119.649 15.7773 119.83 15.3187 120.193 14.956C120.555 14.572 121.014 14.38 121.569 14.38C122.123 14.38 122.582 14.572 122.945 14.956C123.307 15.3187 123.489 15.7773 123.489 16.332V29.548ZM121.537 12.3C120.811 12.3 120.299 12.1827 120.001 11.948C119.702 11.7133 119.553 11.2973 119.553 10.7V10.092C119.553 9.47333 119.713 9.05733 120.033 8.844C120.374 8.60933 120.886 8.492 121.569 8.492C122.315 8.492 122.838 8.60933 123.137 8.844C123.435 9.07867 123.585 9.49467 123.585 10.092V10.7C123.585 11.3187 123.425 11.7453 123.105 11.98C122.785 12.1933 122.262 12.3 121.537 12.3ZM142.091 14.06C142.646 14.06 143.104 14.2413 143.467 14.604C143.83 14.9667 144.011 15.436 144.011 16.012V29.548C144.011 30.1027 143.83 30.572 143.467 30.956C143.104 31.3187 142.646 31.5 142.091 31.5C141.536 31.5 141.078 31.3187 140.715 30.956C140.352 30.572 140.171 30.1027 140.171 29.548V27.98L140.875 28.268C140.875 28.5453 140.726 28.8867 140.427 29.292C140.128 29.676 139.723 30.06 139.211 30.444C138.699 30.828 138.091 31.1587 137.387 31.436C136.704 31.692 135.958 31.82 135.147 31.82C133.675 31.82 132.342 31.4467 131.147 30.7C129.952 29.932 129.003 28.8867 128.299 27.564C127.616 26.22 127.275 24.684 127.275 22.956C127.275 21.2067 127.616 19.6707 128.299 18.348C129.003 17.004 129.942 15.9587 131.115 15.212C132.288 14.444 133.59 14.06 135.019 14.06C135.936 14.06 136.779 14.1987 137.547 14.476C138.315 14.7533 138.976 15.1053 139.531 15.532C140.107 15.9587 140.544 16.396 140.843 16.844C141.163 17.2707 141.323 17.6333 141.323 17.932L140.171 18.348V16.012C140.171 15.4573 140.352 14.9987 140.715 14.636C141.078 14.252 141.536 14.06 142.091 14.06ZM135.627 28.3C136.566 28.3 137.387 28.0653 138.091 27.596C138.795 27.1267 139.339 26.4867 139.723 25.676C140.128 24.8653 140.331 23.9587 140.331 22.956C140.331 21.932 140.128 21.0147 139.723 20.204C139.339 19.3933 138.795 18.7533 138.091 18.284C137.387 17.8147 136.566 17.58 135.627 17.58C134.71 17.58 133.899 17.8147 133.195 18.284C132.491 18.7533 131.936 19.3933 131.531 20.204C131.147 21.0147 130.955 21.932 130.955 22.956C130.955 23.9587 131.147 24.8653 131.531 25.676C131.936 26.4867 132.491 27.1267 133.195 27.596C133.899 28.0653 134.71 28.3 135.627 28.3Z" fill="black"/>
</svg>
